<svg width="58" height="58" viewBox="0 0 58 58" fill="none" xmlns="http://www.w3.org/2000/svg">
<rect x="0.695312" y="0.5" width="57" height="57" rx="19" fill="#DCFAF8"/>
<path d="M32.5322 20.2886H25.8632C23.4977 20.2886 22.9752 21.4666 22.6712 22.9106L21.5977 28.0501H36.7977L35.7242 22.9106C35.4202 21.4666 34.8977 20.2886 32.5322 20.2886Z" stroke="#16DBCC" stroke-width="1.425" stroke-linecap="round" stroke-linejoin="round"/>
<path d="M38.6846 36.4293C38.7891 37.5408 37.8961 38.5003 36.7561 38.5003H34.9701C33.9441 38.5003 33.8016 38.0633 33.6211 37.5218L33.4311 36.9518C33.1651 36.1728 32.9941 35.6503 31.6261 35.6503H26.7621C25.3941 35.6503 25.1946 36.2393 24.9571 36.9518L24.7671 37.5218C24.5866 38.0633 24.4441 38.5003 23.4181 38.5003H21.6321C20.4921 38.5003 19.5991 37.5408 19.7036 36.4293L20.2356 30.6438C20.3686 29.2188 20.6441 28.0503 23.1331 28.0503H35.2551C37.7441 28.0503 38.0196 29.2188 38.1526 30.6438L38.6846 36.4293Z" stroke="#16DBCC" stroke-width="1.425" stroke-linecap="round" stroke-linejoin="round"/>
<path d="M21.5984 25.2002H20.6484" stroke="#16DBCC" stroke-width="1.425" stroke-linecap="round" stroke-linejoin="round"/>
<path d="M37.7469 25.2002H36.7969" stroke="#16DBCC" stroke-width="1.425" stroke-linecap="round" stroke-linejoin="round"/>
<path d="M29.1953 20.4502V22.3502" stroke="#16DBCC" stroke-width="1.425" stroke-linecap="round" stroke-linejoin="round"/>
<path d="M27.7734 22.3501H30.6234" stroke="#16DBCC" stroke-width="1.425" stroke-linecap="round" stroke-linejoin="round"/>
<path d="M23.4961 31.8501H26.3461" stroke="#16DBCC" stroke-width="1.425" stroke-linecap="round" stroke-linejoin="round"/>
<path d="M32.0469 31.8501H34.8969" stroke="#16DBCC" stroke-width="1.425" stroke-linecap="round" stroke-linejoin="round"/>
</svg>
