<svg width="76" height="76" viewBox="0 0 76 76" fill="none" xmlns="http://www.w3.org/2000/svg">
<circle cx="37.7201" cy="37.7797" r="37.6147" fill="#16DBCC"/>
<path opacity="0.4" d="M52.1502 40.5265C51.9445 38.2637 51.3411 35.8501 46.939 35.8501H29.4403C25.0382 35.8501 24.4485 38.2637 24.2291 40.5265L23.4612 48.8781C23.3652 49.9203 23.708 50.9626 24.4211 51.7443C25.1479 52.5396 26.1765 52.9922 27.2736 52.9922H29.8517C32.0733 52.9922 32.4985 51.7168 32.7727 50.8803L33.047 50.0575C33.3624 49.1112 33.4447 48.8781 34.6789 48.8781H41.7004C42.9346 48.8781 42.9757 49.0152 43.3323 50.0575L43.6066 50.8803C43.8808 51.7168 44.306 52.9922 46.5276 52.9922H49.1057C50.1891 52.9922 51.2314 52.5396 51.9582 51.7443C52.6713 50.9626 53.0141 49.9203 52.9181 48.8781L52.1502 40.5265Z" fill="white"/>
<path d="M50.5335 31.736H49.1621C49.1484 31.736 49.1484 31.736 49.1347 31.736L48.6136 29.2538C48.1199 26.8539 47.0913 24.646 43.0047 24.646H39.2197H37.1626H33.3777C29.291 24.646 28.2624 26.8539 27.7688 29.2538L27.2476 31.736C27.2339 31.736 27.2339 31.736 27.2202 31.736H25.8488C25.2866 31.736 24.8203 32.2022 24.8203 32.7645C24.8203 33.3268 25.2866 33.793 25.8488 33.793H26.8225L26.2465 36.5358C26.9871 36.1106 28.0156 35.8501 29.4418 35.8501H46.9405C48.3667 35.8501 49.3952 36.1106 50.1358 36.5358L49.5598 33.793H50.5335C51.0957 33.793 51.562 33.3268 51.562 32.7645C51.562 32.2022 51.0957 31.736 50.5335 31.736Z" fill="white"/>
<path d="M34.0762 43.3925H29.9621C29.3999 43.3925 28.9336 42.9262 28.9336 42.364C28.9336 41.8017 29.3999 41.3354 29.9621 41.3354H34.0762C34.6385 41.3354 35.1048 41.8017 35.1048 42.364C35.1048 42.9262 34.6385 43.3925 34.0762 43.3925Z" fill="white"/>
<path d="M46.42 43.3925H42.3059C41.7436 43.3925 41.2773 42.9262 41.2773 42.364C41.2773 41.8017 41.7436 41.3354 42.3059 41.3354H46.42C46.9822 41.3354 47.4485 41.8017 47.4485 42.364C47.4485 42.9262 46.9822 43.3925 46.42 43.3925Z" fill="white"/>
</svg>
