<svg width="76" height="76" viewBox="0 0 76 76" fill="none" xmlns="http://www.w3.org/2000/svg">
<circle cx="37.7201" cy="37.7797" r="37.6147" fill="#F96868"/>
<path d="M47.3899 34.8077C47.2528 34.8077 47.1156 34.7802 46.9785 34.7254C46.4574 34.4922 46.2242 33.8889 46.4436 33.3677C46.7042 32.778 46.5533 31.9141 46.0734 31.201C45.5934 30.4741 44.8666 29.9942 44.1946 30.0216C43.5912 30.0216 43.1661 29.5691 43.1523 29.0068C43.1523 28.4308 43.6049 27.9783 44.1672 27.9645C45.5797 27.9371 46.9099 28.7463 47.7739 30.0491C48.6515 31.3656 48.8572 32.9427 48.3224 34.1769C48.1716 34.5746 47.7876 34.8077 47.3899 34.8077Z" fill="white"/>
<path d="M51.6535 36.1656C51.5576 36.1656 51.4753 36.152 51.3793 36.1245C50.8307 35.9737 50.5153 35.4115 50.6662 34.8629C51.1873 32.9979 50.7484 30.7762 49.5005 28.9111C48.2525 27.0461 46.3601 25.7981 44.4264 25.565C43.8642 25.4964 43.4665 24.989 43.535 24.4267C43.6036 23.8645 44.1247 23.4531 44.6733 23.5354C47.1829 23.8371 49.6239 25.4279 51.201 27.7866C52.7781 30.1454 53.3129 32.9978 52.6409 35.4389C52.5175 35.864 52.1061 36.1656 51.6535 36.1656Z" fill="white"/>
<path opacity="0.4" d="M45.7574 43.516C45.6065 41.8429 45.1539 40.0464 41.8901 40.0464H28.9032C25.6394 40.0464 25.2005 41.8429 25.036 43.516L24.46 49.7145C24.3914 50.4825 24.652 51.2641 25.1731 51.8401C25.7079 52.4298 26.4759 52.7727 27.285 52.7727H29.1912C30.8369 52.7727 31.1523 51.8265 31.358 51.2093L31.5637 50.6059C31.7968 49.9065 31.8517 49.7282 32.7705 49.7282H37.9817C38.8868 49.7282 38.9279 49.8243 39.1885 50.6059L39.3942 51.2231C39.5999 51.8402 39.9153 52.7864 41.561 52.7864H43.4672C44.2763 52.7864 45.0442 52.4435 45.5791 51.8538C46.1002 51.2779 46.3608 50.4962 46.2922 49.7282L45.7574 43.516Z" fill="white"/>
<path d="M44.564 37.0022H43.5492C43.5355 37.0022 43.5355 37.0022 43.5218 37.0022L43.1378 35.1508C42.7675 33.368 42.0133 31.7361 38.9825 31.7361H36.1712H34.649H31.8377C28.807 31.7361 28.039 33.368 27.6825 35.1508L27.2985 37.0022C27.2848 37.0022 27.2848 37.0022 27.271 37.0022H26.2562C25.8311 37.0022 25.4883 37.345 25.4883 37.7701C25.4883 38.1953 25.8311 38.5381 26.2562 38.5381H26.9831L26.5579 40.5677C27.1065 40.2523 27.8745 40.0603 28.9304 40.0603H41.9173C42.9732 40.0603 43.7412 40.2523 44.2897 40.5677L43.8646 38.5381H44.5914C45.0166 38.5381 45.3594 38.1953 45.3594 37.7701C45.332 37.345 44.9891 37.0022 44.564 37.0022Z" fill="white"/>
<path d="M32.3574 45.6419H29.2992C28.8741 45.6419 28.5312 45.299 28.5312 44.8739C28.5312 44.4488 28.8741 44.106 29.2992 44.106H32.3574C32.7825 44.106 33.1253 44.4488 33.1253 44.8739C33.1116 45.299 32.7825 45.6419 32.3574 45.6419Z" fill="white"/>
<path d="M41.5214 45.6419H38.4633C38.0382 45.6419 37.6953 45.299 37.6953 44.8739C37.6953 44.4488 38.0382 44.106 38.4633 44.106H41.5214C41.9465 44.106 42.2894 44.4488 42.2894 44.8739C42.2757 45.299 41.9328 45.6419 41.5214 45.6419Z" fill="white"/>
</svg>
