<svg width="323" height="603" viewBox="0 0 323 603" fill="none" xmlns="http://www.w3.org/2000/svg">
<g filter="url(#filter0_dddd_2610_6292)">
<path d="M54.957 24.9941L43.9121 46H40.4844L29.4541 24.9941H32.8672L42.1982 42.7627L51.5293 24.9941H54.957ZM81.3535 24.9941L70.3086 46H66.8809L55.8506 24.9941H59.2637L68.5947 42.7627L77.9258 24.9941H81.3535ZM87.3154 46H84.3125V24.9941H87.3154V46ZM107.486 46H104.483V35.4971C104.483 34.4619 104.288 33.4902 103.897 32.582C103.507 31.6738 102.97 30.8828 102.286 30.209C101.612 29.5254 100.816 28.9883 99.8984 28.5977C98.9902 28.1973 98.0186 27.9971 96.9834 27.9971H95.3721V46H92.3691V24.9941H96.9834C97.9404 24.9941 98.8584 25.1211 99.7373 25.375C100.626 25.6191 101.456 25.9658 102.228 26.415C102.999 26.8643 103.702 27.4014 104.337 28.0264C104.972 28.6514 105.523 29.3447 105.992 30.1064C106.451 29.3447 106.998 28.6514 107.633 28.0264C108.268 27.4014 108.971 26.8643 109.742 26.415C110.514 25.9658 111.339 25.6191 112.218 25.375C113.106 25.1211 114.029 24.9941 114.986 24.9941H119.615V46H116.612V27.9971H114.986C113.951 27.9971 112.979 28.1973 112.071 28.5977C111.163 28.9883 110.367 29.5254 109.684 30.209C109.01 30.8828 108.473 31.6738 108.072 32.582C107.682 33.4902 107.486 34.4619 107.486 35.4971V46ZM147.843 39.9941C147.843 40.834 147.687 41.6201 147.374 42.3525C147.062 43.0752 146.632 43.71 146.085 44.2568C145.548 44.7939 144.913 45.2188 144.181 45.5312C143.458 45.8438 142.682 46 141.852 46H123.6V42.9971H141.852C142.271 42.9971 142.662 42.9189 143.023 42.7627C143.385 42.6064 143.697 42.3916 143.961 42.1182C144.234 41.8447 144.449 41.5273 144.605 41.166C144.762 40.7949 144.84 40.4043 144.84 39.9941C144.84 39.584 144.762 39.1982 144.605 38.8369C144.449 38.4756 144.234 38.1582 143.961 37.8848C143.697 37.6113 143.385 37.3965 143.023 37.2402C142.662 37.084 142.271 37.0059 141.852 37.0059H129.605C128.785 37.0059 128.009 36.8496 127.276 36.5371C126.544 36.2246 125.904 35.7998 125.357 35.2627C124.82 34.7158 124.391 34.0762 124.068 33.3438C123.756 32.6113 123.6 31.8301 123.6 31C123.6 30.1797 123.756 29.4033 124.068 28.6709C124.391 27.9385 124.82 27.3037 125.357 26.7666C125.904 26.2197 126.544 25.79 127.276 25.4775C128.009 25.1553 128.785 24.9941 129.605 24.9941H146.349V27.9971H129.605C129.195 27.9971 128.805 28.0752 128.434 28.2314C128.072 28.3877 127.755 28.6025 127.481 28.876C127.208 29.1494 126.993 29.4717 126.837 29.8428C126.681 30.2041 126.603 30.5898 126.603 31C126.603 31.4102 126.681 31.8008 126.837 32.1719C126.993 32.5332 127.208 32.8506 127.481 33.124C127.755 33.3975 128.072 33.6123 128.434 33.7686C128.805 33.9248 129.195 34.0029 129.605 34.0029H141.852C142.682 34.0029 143.458 34.1641 144.181 34.4863C144.913 34.7988 145.548 35.2285 146.085 35.7754C146.632 36.3125 147.062 36.9473 147.374 37.6797C147.687 38.4023 147.843 39.1738 147.843 39.9941Z" fill="white"/>
<path d="M162.682 31.5127C162.682 32.1279 162.608 32.6699 162.462 33.1387C162.325 33.5977 162.14 33.998 161.905 34.3398C161.671 34.6816 161.402 34.9697 161.1 35.2041C160.807 35.4287 160.504 35.6094 160.191 35.7461C159.879 35.8828 159.571 35.9805 159.269 36.0391C158.966 36.0977 158.692 36.127 158.448 36.127H154.757C154.386 36.127 153.956 36.0586 153.468 35.9219C152.989 35.7852 152.53 35.5459 152.091 35.2041C151.661 34.8525 151.295 34.3789 150.992 33.7832C150.689 33.1875 150.538 32.4307 150.538 31.5127V29.5938C150.538 28.6758 150.689 27.9189 150.992 27.3232C151.295 26.7178 151.661 26.2393 152.091 25.8877C152.53 25.5361 152.989 25.292 153.468 25.1553C153.956 25.0088 154.386 24.9355 154.757 24.9355H158.448C158.692 24.9355 158.966 24.9648 159.269 25.0234C159.571 25.082 159.879 25.1846 160.191 25.3311C160.504 25.4678 160.807 25.6533 161.1 25.8877C161.402 26.1221 161.671 26.415 161.905 26.7666C162.14 27.1084 162.325 27.5137 162.462 27.9824C162.608 28.4512 162.682 28.9883 162.682 29.5938V31.5127ZM159.869 29.5352C159.869 29.8867 159.815 30.1943 159.708 30.458C159.601 30.7119 159.459 30.9268 159.283 31.1025C159.107 31.2783 158.912 31.4199 158.697 31.5273C158.482 31.6348 158.272 31.708 158.067 31.7471L160.47 33.6074C160.646 33.3828 160.792 33.1045 160.909 32.7725C161.036 32.4307 161.1 32.0107 161.1 31.5127V29.5938C161.1 29.1836 161.036 28.7979 160.909 28.4365C160.792 28.0654 160.621 27.7383 160.396 27.4551C160.172 27.1719 159.894 26.9473 159.562 26.7812C159.229 26.6152 158.858 26.5322 158.448 26.5322H154.757C154.708 26.5322 154.61 26.542 154.464 26.5615C154.317 26.5713 154.146 26.6104 153.951 26.6787C153.756 26.7373 153.551 26.8301 153.336 26.957C153.121 27.084 152.921 27.2646 152.735 27.499C152.56 27.7236 152.413 28.0068 152.296 28.3486C152.179 28.6904 152.12 29.1055 152.12 29.5938V31.5127C152.12 31.9131 152.184 32.2988 152.311 32.6699C152.438 33.0312 152.613 33.3535 152.838 33.6367C153.072 33.9102 153.351 34.1299 153.673 34.2959C153.995 34.4619 154.356 34.5449 154.757 34.5449H158.448C158.478 34.5449 158.541 34.5449 158.639 34.5449C158.736 34.5352 158.844 34.5156 158.961 34.4863L155.606 31.7764V30.165H157.613C157.828 30.165 157.989 30.1113 158.097 30.0039C158.214 29.8867 158.272 29.7305 158.272 29.5352V28.9053H155.064V33.373H153.468V27.2793H158.302C158.556 27.2793 158.78 27.3281 158.976 27.4258C159.171 27.5137 159.332 27.6309 159.459 27.7773C159.596 27.9238 159.698 28.0947 159.767 28.29C159.835 28.4756 159.869 28.6611 159.869 28.8467V29.5352Z" fill="#16DBCC"/>
</g>
<defs>
<filter id="filter0_dddd_2610_6292" x="-128.547" y="-5.06445" width="451.227" height="608.064" filterUnits="userSpaceOnUse" color-interpolation-filters="sRGB">
<feFlood flood-opacity="0" result="BackgroundImageFix"/>
<feColorMatrix in="SourceAlpha" type="matrix" values="0 0 0 0 0 0 0 0 0 0 0 0 0 0 0 0 0 0 127 0" result="hardAlpha"/>
<feOffset dy="25"/>
<feGaussianBlur stdDeviation="27.5"/>
<feColorMatrix type="matrix" values="0 0 0 0 0.301961 0 0 0 0 0.298039 0 0 0 0 0.298039 0 0 0 0.1 0"/>
<feBlend mode="normal" in2="BackgroundImageFix" result="effect1_dropShadow_2610_6292"/>
<feColorMatrix in="SourceAlpha" type="matrix" values="0 0 0 0 0 0 0 0 0 0 0 0 0 0 0 0 0 0 127 0" result="hardAlpha"/>
<feOffset dy="99"/>
<feGaussianBlur stdDeviation="49.5"/>
<feColorMatrix type="matrix" values="0 0 0 0 0.301961 0 0 0 0 0.298039 0 0 0 0 0.298039 0 0 0 0.09 0"/>
<feBlend mode="normal" in2="effect1_dropShadow_2610_6292" result="effect2_dropShadow_2610_6292"/>
<feColorMatrix in="SourceAlpha" type="matrix" values="0 0 0 0 0 0 0 0 0 0 0 0 0 0 0 0 0 0 127 0" result="hardAlpha"/>
<feOffset dy="224"/>
<feGaussianBlur stdDeviation="67"/>
<feColorMatrix type="matrix" values="0 0 0 0 0.301961 0 0 0 0 0.298039 0 0 0 0 0.298039 0 0 0 0.05 0"/>
<feBlend mode="normal" in2="effect2_dropShadow_2610_6292" result="effect3_dropShadow_2610_6292"/>
<feColorMatrix in="SourceAlpha" type="matrix" values="0 0 0 0 0 0 0 0 0 0 0 0 0 0 0 0 0 0 127 0" result="hardAlpha"/>
<feOffset dx="1" dy="398"/>
<feGaussianBlur stdDeviation="79.5"/>
<feColorMatrix type="matrix" values="0 0 0 0 0.301961 0 0 0 0 0.298039 0 0 0 0 0.298039 0 0 0 0.01 0"/>
<feBlend mode="normal" in2="effect3_dropShadow_2610_6292" result="effect4_dropShadow_2610_6292"/>
<feBlend mode="normal" in="SourceGraphic" in2="effect4_dropShadow_2610_6292" result="shape"/>
</filter>
</defs>
</svg>
