<svg width="76" height="76" viewBox="0 0 76 76" fill="none" xmlns="http://www.w3.org/2000/svg">
<circle cx="37.7201" cy="37.7797" r="37.6147" fill="#386BF6"/>
<path opacity="0.4" d="M45.7723 32.4492C45.6763 32.4355 45.5803 32.4355 45.4843 32.4492C43.3587 32.3806 41.6719 30.639 41.6719 28.4996C41.6719 26.3192 43.4409 24.5364 45.6351 24.5364C47.8156 24.5364 49.5984 26.3054 49.5984 28.4996C49.5847 30.639 47.8979 32.3806 45.7723 32.4492Z" fill="white"/>
<path opacity="0.4" d="M50.2421 41.9526C48.7062 42.9811 46.5532 43.3651 44.5647 43.1045C45.0858 41.98 45.3601 40.7321 45.3738 39.4156C45.3738 38.0442 45.0721 36.7414 44.4961 35.6032C46.5257 35.3289 48.6788 35.7129 50.2284 36.7414C52.3952 38.1676 52.3952 40.5127 50.2421 41.9526Z" fill="white"/>
<path opacity="0.4" d="M30.5683 32.4492C30.6643 32.4355 30.7603 32.4355 30.8563 32.4492C32.9819 32.3806 34.6687 30.639 34.6687 28.4996C34.6687 26.3192 32.8996 24.5364 30.7054 24.5364C28.525 24.5364 26.7422 26.3054 26.7422 28.4996C26.7559 30.639 28.4427 32.3806 30.5683 32.4492Z" fill="white"/>
<path opacity="0.4" d="M30.7192 39.4153C30.7192 40.7456 31.0072 42.0072 31.5283 43.1455C29.5947 43.3512 27.5788 42.9398 26.0977 41.9661C23.931 40.5262 23.931 38.1811 26.0977 36.7412C27.5651 35.7538 29.6359 35.3561 31.5832 35.5755C31.0209 36.7275 30.7192 38.0303 30.7192 39.4153Z" fill="white"/>
<path d="M38.3567 43.557C38.247 43.5433 38.1236 43.5433 38.0002 43.557C35.4769 43.4748 33.4609 41.404 33.4609 38.8533C33.4609 36.2477 35.5591 34.1357 38.1784 34.1357C40.784 34.1357 42.896 36.2477 42.896 38.8533C42.896 41.404 40.8938 43.4748 38.3567 43.557Z" fill="white"/>
<path d="M33.9007 46.3959C31.83 47.781 31.83 50.0575 33.9007 51.4289C36.2595 53.0059 40.1267 53.0059 42.4855 51.4289C44.5563 50.0438 44.5563 47.7673 42.4855 46.3959C40.1405 44.8189 36.2732 44.8189 33.9007 46.3959Z" fill="white"/>
</svg>
